<mxfile host="app.diagrams.net" modified="2022-09-29T04:18:03.077Z" agent="5.0 (Windows NT 10.0; Win64; x64) AppleWebKit/537.36 (KHTML, like Gecko) Chrome/105.0.0.0 Safari/537.36" etag="G_HUbCyrmN2gb8g9r4Zh" version="20.3.7" type="github">
  <diagram id="q8xmXXXaX6RDKj1XC6pM" name="PÃ¡gina-1">
    <mxGraphModel dx="1038" dy="481" grid="1" gridSize="10" guides="1" tooltips="1" connect="1" arrows="1" fold="1" page="1" pageScale="1" pageWidth="1169" pageHeight="827" math="0" shadow="0">
      <root>
        <mxCell id="0" />
        <mxCell id="1" parent="0" />
        <mxCell id="YGvmBKsDaWd_bATqlUQZ-1" value="SISTEMA DE GESTORES DE DATOS" style="rounded=0;whiteSpace=wrap;html=1;fillColor=#d80073;strokeColor=#A50040;fontColor=#ffffff;" vertex="1" parent="1">
          <mxGeometry x="375" y="10" width="210" height="80" as="geometry" />
        </mxCell>
        <mxCell id="YGvmBKsDaWd_bATqlUQZ-9" value="&#xa;&lt;div style=&quot;color: rgb(0, 0, 0); font-family: Helvetica; font-style: normal; font-variant-ligatures: normal; font-variant-caps: normal; font-weight: 400; letter-spacing: normal; orphans: 2; text-indent: 0px; text-transform: none; widows: 2; word-spacing: 0px; -webkit-text-stroke-width: 0px; background-color: rgb(248, 249, 250); text-decoration-thickness: initial; text-decoration-style: initial; text-decoration-color: initial; font-size: 12px; text-align: left;&quot;&gt;&lt;span style=&quot;background-color: initial;&quot;&gt;&lt;b&gt;&lt;font style=&quot;font-size: 14px;&quot;&gt;ORACLE:&lt;/font&gt;&lt;/b&gt;&lt;/span&gt;&lt;/div&gt;&lt;div style=&quot;color: rgb(0, 0, 0); font-family: Helvetica; font-style: normal; font-variant-ligatures: normal; font-variant-caps: normal; font-weight: 400; letter-spacing: normal; orphans: 2; text-indent: 0px; text-transform: none; widows: 2; word-spacing: 0px; -webkit-text-stroke-width: 0px; background-color: rgb(248, 249, 250); text-decoration-thickness: initial; text-decoration-style: initial; text-decoration-color: initial; font-size: 12px; text-align: justify;&quot;&gt;&lt;span style=&quot;background-color: initial;&quot;&gt;Es un sistema de base de datos relacional&lt;/span&gt;&lt;/div&gt;&#xa;&#xa;" style="rounded=1;whiteSpace=wrap;html=1;absoluteArcSize=1;arcSize=14;strokeWidth=2;fontSize=14;" vertex="1" parent="1">
          <mxGeometry x="80" y="120" width="160" height="100" as="geometry" />
        </mxCell>
        <mxCell id="YGvmBKsDaWd_bATqlUQZ-10" value="&lt;div style=&quot;text-align: left; font-size: 12px;&quot;&gt;&lt;span style=&quot;background-color: initial;&quot;&gt;&lt;b&gt;&lt;font style=&quot;font-size: 14px;&quot;&gt;CARACTERISTICAS:&lt;/font&gt;&lt;/b&gt;&lt;/span&gt;&lt;/div&gt;&lt;div style=&quot;text-align: left; font-size: 12px;&quot;&gt;&lt;br&gt;&lt;/div&gt;&lt;div&gt;&lt;ul style=&quot;font-size: 12px;&quot;&gt;&lt;li style=&quot;text-align: left;&quot;&gt;Soporte de transacciones&lt;/li&gt;&lt;li style=&quot;text-align: left;&quot;&gt;Estabilidad&lt;/li&gt;&lt;li style=&quot;text-align: left;&quot;&gt;Escalabilidad&lt;/li&gt;&lt;li style=&quot;text-align: left;&quot;&gt;multiplataforma&lt;/li&gt;&lt;/ul&gt;&lt;/div&gt;" style="rounded=1;whiteSpace=wrap;html=1;absoluteArcSize=1;arcSize=14;strokeWidth=2;fontSize=14;" vertex="1" parent="1">
          <mxGeometry x="80" y="280" width="160" height="220" as="geometry" />
        </mxCell>
      </root>
    </mxGraphModel>
  </diagram>
</mxfile>
